<svg width="15.400024" height="13.200012" viewBox="0 0 15.4 13.2" fill="none" xmlns="http://www.w3.org/2000/svg" xmlns:xlink="http://www.w3.org/1999/xlink">
	<desc>
			Created with Pixso.
	</desc>
	<defs/>
	<path id="Vector" d="M0 1.09998C0 0.808228 0.115906 0.528503 0.322205 0.322205C0.528503 0.115906 0.808228 0 1.09998 0L14.3 0C14.5917 0 14.8716 0.115906 15.0778 0.322205C15.2841 0.528503 15.4 0.808228 15.4 1.09998C15.4 1.39172 15.2841 1.67151 15.0778 1.87781C14.8716 2.08411 14.5917 2.20001 14.3 2.20001L1.09998 2.20001C0.808228 2.20001 0.528503 2.08411 0.322205 1.87781C0.115906 1.67151 0 1.39172 0 1.09998ZM0 6.59998C0 6.30823 0.115906 6.02844 0.322205 5.8222C0.528503 5.61591 0.808228 5.5 1.09998 5.5L7.70001 5.5C7.9917 5.5 8.27155 5.61591 8.47778 5.8222C8.68408 6.02844 8.79999 6.30823 8.79999 6.59998C8.79999 6.89172 8.68408 7.17157 8.47778 7.37781C8.27155 7.58405 7.9917 7.70001 7.70001 7.70001L1.09998 7.70001C0.808228 7.70001 0.528503 7.58405 0.322205 7.37781C0.115906 7.17157 0 6.89172 0 6.59998ZM0 12.1C0 11.8083 0.115906 11.5284 0.322205 11.3222C0.528503 11.1159 0.808228 11 1.09998 11L14.3 11C14.5917 11 14.8716 11.1159 15.0778 11.3222C15.2841 11.5284 15.4 11.8083 15.4 12.1C15.4 12.3917 15.2841 12.6716 15.0778 12.8778C14.8716 13.084 14.5917 13.2 14.3 13.2L1.09998 13.2C0.808228 13.2 0.528503 13.084 0.322205 12.8778C0.115906 12.6716 0 12.3917 0 12.1Z" fill="#333845" fill-opacity="1.000000" fill-rule="evenodd"/>
</svg>
