<svg width="25.000000" height="24.907043" viewBox="0 0 25 24.907" fill="none" xmlns="http://www.w3.org/2000/svg" xmlns:xlink="http://www.w3.org/1999/xlink">
	<desc>
			Created with Pixso.
	</desc>
	<defs>
		<clipPath id="clip49_3349">
			<rect id="data 1" width="25.000000" height="24.907063" fill="white" fill-opacity="0"/>
		</clipPath>
	</defs>
	<rect id="data 1" width="25.000000" height="24.907063" fill="#FFFFFF" fill-opacity="0"/>
	<g clip-path="url(#clip49_3349)">
		<path id="Vector" d="M0.78125 0.77832L0.78125 24.1287L24.2188 24.1287L24.2188 0.77832L0.78125 0.77832ZM13.3977 2.33502L11.4446 3.89172L2.34375 3.89172L2.34375 2.33502L13.3977 2.33502ZM22.6562 22.572L2.34375 22.572L2.34375 5.44836L11.9929 5.44836L15.8992 2.33502L22.6562 2.33502L22.6562 22.572Z" fill="#333845" fill-opacity="1.000000" fill-rule="nonzero"/>
		<path id="Vector" d="M16.4062 10.1185L16.4062 19.4587L14.8438 19.4587L14.8438 7.00513L10.1562 7.00513L10.1562 19.4587L8.59375 19.4587L8.59375 14.0103L3.90625 14.0103L3.90625 19.4587L3.125 19.4587L3.125 21.0154L21.875 21.0154L21.875 19.4587L21.0938 19.4587L21.0938 10.1185L16.4062 10.1185ZM5.46875 19.4587L5.46875 15.567L7.03125 15.567L7.03125 19.4587L5.46875 19.4587ZM11.7188 19.4587L11.7188 8.56183L13.2812 8.56183L13.2812 19.4587L11.7188 19.4587ZM17.9688 19.4587L17.9688 11.6752L19.5312 11.6752L19.5312 19.4587L17.9688 19.4587Z" fill="#333845" fill-opacity="1.000000" fill-rule="nonzero"/>
	</g>
</svg>
