<svg width="28.000000" height="28.000000" viewBox="0 0 28 28" fill="none" xmlns="http://www.w3.org/2000/svg" xmlns:xlink="http://www.w3.org/1999/xlink">
	<desc>
			Created with Pixso.
	</desc>
	<defs>
		<clipPath id="clip49_3650">
			<rect id="checklist 2" width="28.000000" height="28.000000" fill="white" fill-opacity="0"/>
		</clipPath>
	</defs>
	<rect id="checklist 2" width="28.000000" height="28.000000" fill="#FFFFFF" fill-opacity="0"/>
	<g clip-path="url(#clip49_3650)">
		<path id="Vector" d="M20.5568 11.2235L14.4318 11.2235C13.9534 11.2235 13.5568 10.8268 13.5568 10.3485C13.5568 9.87018 13.9534 9.47351 14.4318 9.47351L20.5568 9.47351C21.0351 9.47351 21.4318 9.87018 21.4318 10.3485C21.4318 10.8268 21.0468 11.2235 20.5568 11.2235Z" fill="#333845" fill-opacity="1.000000" fill-rule="nonzero"/>
		<path id="Vector" d="M8.30615 12.1102C8.08447 12.1102 7.86285 12.0285 7.68781 11.8535L6.81281 10.9785C6.47449 10.6401 6.47449 10.0801 6.81281 9.74176C7.15118 9.40344 7.71118 9.40344 8.0495 9.74176L8.30615 9.99847L10.3128 7.99176C10.6512 7.65344 11.2112 7.65344 11.5495 7.99176C11.8879 8.33014 11.8879 8.89014 11.5495 9.22845L8.9245 11.8535C8.76117 12.0168 8.53949 12.1102 8.30615 12.1102Z" fill="#333845" fill-opacity="1.000000" fill-rule="nonzero"/>
		<path id="Vector" d="M20.5568 19.3901L14.4318 19.3901C13.9534 19.3901 13.5568 18.9935 13.5568 18.5151C13.5568 18.0368 13.9534 17.6401 14.4318 17.6401L20.5568 17.6401C21.0351 17.6401 21.4318 18.0368 21.4318 18.5151C21.4318 18.9935 21.0468 19.3901 20.5568 19.3901Z" fill="#333845" fill-opacity="1.000000" fill-rule="nonzero"/>
		<path id="Vector" d="M8.30615 20.2767C8.08447 20.2767 7.86285 20.1951 7.68781 20.0201L6.81281 19.1451C6.47449 18.8068 6.47449 18.2468 6.81281 17.9084C7.15118 17.5701 7.71118 17.5701 8.0495 17.9084L8.30615 18.1651L10.3128 16.1584C10.6512 15.8201 11.2112 15.8201 11.5495 16.1584C11.8879 16.4968 11.8879 17.0568 11.5495 17.3951L8.9245 20.0201C8.76117 20.1834 8.53949 20.2767 8.30615 20.2767Z" fill="#333845" fill-opacity="1.000000" fill-rule="nonzero"/>
		<path id="Vector" d="M17.5001 26.5417L10.5001 26.5417C4.16504 26.5417 1.45837 23.835 1.45837 17.5001L1.45837 10.5001C1.45837 4.16504 4.16504 1.45837 10.5001 1.45837L17.5001 1.45837C23.835 1.45837 26.5417 4.16504 26.5417 10.5001L26.5417 17.5001C26.5417 23.835 23.835 26.5417 17.5001 26.5417ZM10.5001 3.20837C5.1217 3.20837 3.20837 5.1217 3.20837 10.5001L3.20837 17.5001C3.20837 22.8784 5.1217 24.7917 10.5001 24.7917L17.5001 24.7917C22.8784 24.7917 24.7917 22.8784 24.7917 17.5001L24.7917 10.5001C24.7917 5.1217 22.8784 3.20837 17.5001 3.20837L10.5001 3.20837Z" fill="#333845" fill-opacity="1.000000" fill-rule="nonzero"/>
	</g>
</svg>
