<svg width="24.500000" height="24.408936" viewBox="0 0 24.5 24.4089" fill="none" xmlns="http://www.w3.org/2000/svg" xmlns:xlink="http://www.w3.org/1999/xlink">
	<desc>
			Created with Pixso.
	</desc>
	<defs/>
	<path id="Vector" d="M4.375 11.3327L4.45374 11.3327C5.14502 13.7736 6.97363 15.7437 9.31873 16.6504C9.37256 17.5507 9.37512 18.4581 9.30969 19.3525C9.20032 20.8355 8.94226 21.5349 8.6167 22.4202C8.58826 22.4968 8.55823 22.5865 8.5293 22.6654L7.07947 22.6654C6.59583 22.6654 6.20447 23.0558 6.20447 23.5372C6.20447 24.0186 6.59583 24.4089 7.07947 24.4089L9.14734 24.4089L15.3527 24.4089L17.4205 24.4089C17.9042 24.4089 18.2955 24.0186 18.2955 23.5372C18.2955 23.0558 17.9042 22.6654 17.4205 22.6654L15.9707 22.6654C15.9418 22.5865 15.9117 22.4968 15.8833 22.4202C15.5577 21.5349 15.2997 20.8354 15.1903 19.3529C15.1249 18.458 15.127 17.5508 15.1808 16.6505C17.5259 15.7438 19.355 13.7736 20.0463 11.3327L20.125 11.3327C22.54 11.3327 24.5 9.38 24.5 6.97397L24.5 3.25162C24.5 2.76343 24.1062 2.37988 23.625 2.37988L20.3612 2.37988L20.3612 0.871735C20.3612 0.392273 19.9762 0 19.4862 0L5.01379 0C4.5238 0 4.13879 0.392273 4.13879 0.871735L4.13879 2.37988L0.875 2.37988C0.393799 2.37988 0 2.76343 0 3.25162L0 6.97397C0 9.38 1.95996 11.3327 4.375 11.3327ZM13.4454 19.4802C13.5565 20.9871 13.818 21.8499 14.1111 22.6654L10.3889 22.6654C10.682 21.8499 10.9435 20.9871 11.0544 19.4798C11.1118 18.695 11.1123 17.9019 11.0852 17.1105C11.0885 17.1109 11.0916 17.112 11.095 17.1124C11.4712 17.1734 11.8562 17.1996 12.2499 17.1996C12.6437 17.1996 13.0287 17.1734 13.4049 17.1124C13.4082 17.112 13.4113 17.1109 13.4147 17.1105C13.3876 17.9019 13.3881 18.6951 13.4454 19.4802ZM22.75 4.12335L22.75 6.97397C22.75 8.33389 21.7 9.45847 20.3612 9.58051L20.3612 9.10977L20.3612 4.12335L22.75 4.12335ZM5.88879 1.7435L18.6112 1.7435L18.6112 3.25162L18.6112 9.10977C18.6112 12.6055 15.7588 15.4561 12.25 15.4561C8.74121 15.4561 5.88879 12.6055 5.88879 9.10977L5.88879 3.25162L5.88879 1.7435ZM1.75 4.12335L4.13879 4.12335L4.13879 9.10977L4.13879 9.58051C2.80005 9.45847 1.75 8.33389 1.75 6.97397L1.75 4.12335Z" fill="#333845" fill-opacity="1.000000" fill-rule="nonzero"/>
	<path id="Vector" d="M12.25 11.3327C13.9387 11.3327 15.3125 9.96405 15.3125 8.28159C15.3125 6.59912 13.9387 5.23047 12.25 5.23047C10.5613 5.23047 9.1875 6.59912 9.1875 8.28159C9.1875 9.96405 10.5613 11.3327 12.25 11.3327ZM12.25 6.97397C12.9762 6.97397 13.5625 7.55804 13.5625 8.28159C13.5625 9.00513 12.9762 9.5892 12.25 9.5892C11.5238 9.5892 10.9375 9.00513 10.9375 8.28159C10.9375 7.55804 11.5238 6.97397 12.25 6.97397Z" fill="#333845" fill-opacity="1.000000" fill-rule="nonzero"/>
</svg>
