<svg width="23.000000" height="22.914490" viewBox="0 0 23 22.9145" fill="none" xmlns="http://www.w3.org/2000/svg" xmlns:xlink="http://www.w3.org/1999/xlink">
	<desc>
			Created with Pixso.
	</desc>
	<defs>
		<clipPath id="clip49_3341">
			<rect id="homepage 1" width="23.000000" height="22.914497" fill="white" fill-opacity="0"/>
		</clipPath>
	</defs>
	<rect id="homepage 1" width="23.000000" height="22.914497" fill="#FFFFFF" fill-opacity="0"/>
	<g clip-path="url(#clip49_3341)">
		<path id="Vector" d="M20.0883 22.1984L2.91168 22.1984C2.33032 22.1977 1.77295 21.9672 1.36188 21.5577C0.950806 21.1481 0.719482 20.5929 0.71875 20.0137L0.71875 9.34912C0.719055 9.00134 0.80249 8.65869 0.96228 8.34949C1.12201 8.04028 1.35339 7.77344 1.63733 7.57111L10.2256 1.45935C10.5975 1.19482 11.043 1.05261 11.5 1.05261C11.957 1.05261 12.4025 1.19482 12.7744 1.45935L21.3627 7.57111C21.6466 7.77344 21.878 8.04028 22.0377 8.34949C22.1975 8.65869 22.2809 9.00134 22.2812 9.34912L22.2812 20.0137C22.2805 20.5929 22.0492 21.1481 21.6381 21.5577C21.2271 21.9672 20.6697 22.1977 20.0883 22.1984ZM11.5 2.4848C11.3426 2.48474 11.1891 2.53357 11.0609 2.62445L2.47247 8.73615C2.37476 8.80585 2.29504 8.89771 2.24005 9.00415C2.18506 9.11066 2.15631 9.22864 2.15625 9.34839L2.15625 20.0137C2.15643 20.2132 2.23608 20.4045 2.37769 20.5457C2.51935 20.6867 2.71136 20.7661 2.91168 20.7663L20.0898 20.7663C20.2898 20.7657 20.4815 20.6862 20.6228 20.5451C20.7641 20.4041 20.8436 20.213 20.8438 20.0137L20.8438 9.34912C20.8437 9.22937 20.8149 9.11139 20.7599 9.00488C20.705 8.89844 20.6252 8.80652 20.5275 8.73688L11.9391 2.62512C11.8111 2.53375 11.6575 2.48468 11.5 2.4848Z" fill="#333845" fill-opacity="1.000000" fill-rule="nonzero"/>
		<path id="Vector" d="M15.0938 18.618L7.90625 18.618C7.71564 18.618 7.53284 18.5425 7.39801 18.4083C7.26324 18.274 7.1875 18.0918 7.1875 17.9019L7.1875 15.7537C7.1875 15.5638 7.26324 15.3816 7.39801 15.2473C7.53284 15.113 7.71564 15.0376 7.90625 15.0376C8.09686 15.0376 8.27966 15.113 8.41449 15.2473C8.54926 15.3816 8.625 15.5638 8.625 15.7537L8.625 17.1859L14.375 17.1859L14.375 15.7537C14.375 15.5638 14.4507 15.3816 14.5855 15.2473C14.7203 15.113 14.9031 15.0376 15.0938 15.0376C15.2844 15.0376 15.4672 15.113 15.602 15.2473C15.7368 15.3816 15.8125 15.5638 15.8125 15.7537L15.8125 17.9019C15.8125 18.0918 15.7368 18.274 15.602 18.4083C15.4672 18.5425 15.2844 18.618 15.0938 18.618Z" fill="#333845" fill-opacity="1.000000" fill-rule="nonzero"/>
	</g>
</svg>
