<svg width="25.000000" height="19.782959" viewBox="0 0 25 19.783" fill="none" xmlns="http://www.w3.org/2000/svg" xmlns:xlink="http://www.w3.org/1999/xlink">
	<desc>
			Created with Pixso.
	</desc>
	<defs/>
	<path id="Vector" d="M23.3507 0L1.64934 0C0.739944 0 0 0.739929 0 1.64935L0 18.1337C0 19.0432 0.739944 19.783 1.64934 19.783L23.3507 19.783C24.2601 19.783 25 19.0432 25 18.1337L25 1.64935C25 0.739929 24.2602 0 23.3507 0ZM1.64934 1.4137L23.3507 1.4137C23.4784 1.4137 23.5863 1.52167 23.5863 1.64935L23.5863 12.6268L19.8062 7.77545C19.5257 7.41553 19.1151 7.19983 18.6797 7.18378C18.2444 7.16748 17.819 7.3526 17.5127 7.69104L12.6082 13.1115C12.4901 13.2419 12.228 13.2779 12.079 13.1842L8.04634 10.6446C7.35532 10.2092 6.34395 10.2541 5.69411 10.7487L1.41373 14.0063L1.41373 1.64935C1.41373 1.52167 1.52164 1.4137 1.64934 1.4137ZM23.3507 18.3693L1.64934 18.3693C1.52164 18.3693 1.41373 18.2614 1.41373 18.1337L1.41373 15.7829L6.55034 11.8737C6.72876 11.738 7.10358 11.7214 7.29312 11.8408L11.3258 14.3804C12.0547 14.8395 13.0784 14.6987 13.6565 14.0599L18.5611 8.63953C18.5905 8.60706 18.6115 8.59711 18.6278 8.5965C18.6401 8.59692 18.6641 8.60974 18.691 8.64435L23.5863 14.9268L23.5863 18.1335C23.5863 18.2614 23.4784 18.3693 23.3507 18.3693Z" fill="#333845" fill-opacity="1.000000" fill-rule="nonzero"/>
	<path id="Vector" d="M10.4468 9.57056C11.8274 9.57056 12.9506 8.44745 12.9506 7.06677C12.9506 5.68616 11.8273 4.56299 10.4468 4.56299C9.06615 4.56299 7.94299 5.68622 7.94299 7.06677C7.94299 8.44733 9.06615 9.57056 10.4468 9.57056ZM10.4468 5.97662C11.0479 5.97662 11.5369 6.46558 11.5369 7.06671C11.5369 7.66779 11.0479 8.15674 10.4468 8.15674C9.84567 8.15674 9.35672 7.66779 9.35672 7.06671C9.35672 6.4657 9.84567 5.97662 10.4468 5.97662Z" fill="#333845" fill-opacity="1.000000" fill-rule="nonzero"/>
</svg>
