<svg width="18.750000" height="23.350372" viewBox="0 0 18.75 23.3504" fill="none" xmlns="http://www.w3.org/2000/svg" xmlns:xlink="http://www.w3.org/1999/xlink">
	<desc>
			Created with Pixso.
	</desc>
	<defs/>
	<path id="Vector" d="M16.9617 1.94586L13.9352 1.94586C13.7682 1.38544 13.4245 0.893524 12.9549 0.54303C12.4853 0.192535 11.9149 0.00210571 11.3281 0L7.42188 0C6.83512 0.00210571 6.26467 0.192535 5.79508 0.54303C5.3255 0.893524 4.98176 1.38544 4.81484 1.94586L1.78828 1.94586C1.31419 1.94647 0.859694 2.1344 0.524461 2.46838C0.189227 2.80237 0.000619888 3.25516 0 3.72751L0 21.5687C0.000619888 22.0411 0.189227 22.4939 0.524461 22.8279C0.859694 23.1618 1.31419 23.3498 1.78828 23.3504L16.9617 23.3504C17.4358 23.3498 17.8903 23.1618 18.2255 22.8279C18.5608 22.4939 18.7494 22.0411 18.75 21.5687L18.75 3.72751C18.7494 3.25516 18.5608 2.80237 18.2255 2.46838C17.8903 2.1344 17.4358 1.94647 16.9617 1.94586ZM7.42188 1.5567L11.3281 1.5567C11.6389 1.5567 11.937 1.67969 12.1568 1.89865C12.3765 2.11761 12.5 2.41455 12.5 2.72421C12.5 3.03384 12.3765 3.33081 12.1568 3.54977C11.937 3.76874 11.6389 3.89172 11.3281 3.89172L7.42188 3.89172C7.11107 3.89172 6.813 3.76874 6.59323 3.54977C6.37347 3.33081 6.25 3.03384 6.25 2.72421C6.25 2.41455 6.37347 2.11761 6.59323 1.89865C6.813 1.67969 7.11107 1.5567 7.42188 1.5567ZM17.1875 21.5687C17.1873 21.6283 17.1634 21.6854 17.1211 21.7276C17.0788 21.7697 17.0215 21.7935 16.9617 21.7937L1.78828 21.7937C1.72846 21.7935 1.67115 21.7697 1.62886 21.7276C1.58656 21.6854 1.56271 21.6283 1.5625 21.5687L1.5625 3.72751C1.56271 3.66791 1.58656 3.61081 1.62886 3.56866C1.67115 3.52652 1.72846 3.50275 1.78828 3.50256L4.81484 3.50256C4.98176 4.06299 5.3255 4.5549 5.79508 4.9054C6.26467 5.25589 6.83512 5.44632 7.42188 5.44843L11.3281 5.44843C11.9149 5.44632 12.4853 5.25589 12.9549 4.9054C13.4245 4.5549 13.7682 4.06299 13.9352 3.50256L16.9617 3.50256C17.0215 3.50275 17.0788 3.52652 17.1211 3.56866C17.1634 3.61081 17.1873 3.66791 17.1875 3.72751L17.1875 21.5687Z" fill="#333845" fill-opacity="1.000000" fill-rule="nonzero"/>
	<path id="Vector" d="M14.0625 16.3453L4.6875 16.3453C4.4803 16.3453 4.28159 16.4273 4.13507 16.5732C3.98856 16.7192 3.90625 16.9172 3.90625 17.1236C3.90625 17.33 3.98856 17.528 4.13507 17.674C4.28159 17.82 4.4803 17.902 4.6875 17.902L14.0625 17.902C14.2697 17.902 14.4684 17.82 14.6149 17.674C14.7614 17.528 14.8438 17.33 14.8438 17.1236C14.8438 16.9172 14.7614 16.7192 14.6149 16.5732C14.4684 16.4273 14.2697 16.3453 14.0625 16.3453Z" fill="#333845" fill-opacity="1.000000" fill-rule="nonzero"/>
	<path id="Vector" d="M14.0625 12.4536L4.6875 12.4536C4.4803 12.4536 4.28159 12.5356 4.13507 12.6815C3.98856 12.8275 3.90625 13.0255 3.90625 13.2319C3.90625 13.4383 3.98856 13.6363 4.13507 13.7823C4.28159 13.9283 4.4803 14.0103 4.6875 14.0103L14.0625 14.0103C14.2697 14.0103 14.4684 13.9283 14.6149 13.7823C14.7614 13.6363 14.8438 13.4383 14.8438 13.2319C14.8438 13.0255 14.7614 12.8275 14.6149 12.6815C14.4684 12.5356 14.2697 12.4536 14.0625 12.4536Z" fill="#333845" fill-opacity="1.000000" fill-rule="nonzero"/>
	<path id="Vector" d="M14.0625 8.56183L4.6875 8.56183C4.4803 8.56183 4.28159 8.64383 4.13507 8.78979C3.98856 8.93576 3.90625 9.13376 3.90625 9.34018C3.90625 9.5466 3.98856 9.74457 4.13507 9.89053C4.28159 10.0365 4.4803 10.1185 4.6875 10.1185L14.0625 10.1185C14.2697 10.1185 14.4684 10.0365 14.6149 9.89053C14.7614 9.74457 14.8438 9.5466 14.8438 9.34018C14.8438 9.13376 14.7614 8.93576 14.6149 8.78979C14.4684 8.64383 14.2697 8.56183 14.0625 8.56183Z" fill="#333845" fill-opacity="1.000000" fill-rule="nonzero"/>
</svg>
