<svg width="19.687500" height="28.000000" viewBox="0 0 19.6875 28" fill="none" xmlns="http://www.w3.org/2000/svg" xmlns:xlink="http://www.w3.org/1999/xlink">
	<desc>
			Created with Pixso.
	</desc>
	<defs/>
	<path id="Vector" d="M9.84375 13.125C11.653 13.125 13.125 11.653 13.125 9.84375C13.125 8.03448 11.653 6.5625 9.84375 6.5625C8.03447 6.5625 6.5625 8.03448 6.5625 9.84375C6.5625 11.653 8.03447 13.125 9.84375 13.125ZM9.84375 8.75C10.4468 8.75 10.9375 9.24066 10.9375 9.84375C10.9375 10.4468 10.4468 10.9375 9.84375 10.9375C9.24066 10.9375 8.75 10.4468 8.75 9.84375C8.75 9.24066 9.24066 8.75 9.84375 8.75Z" fill="#333845" fill-opacity="1.000000" fill-rule="nonzero"/>
	<path id="Vector" d="M19.6875 9.84375C19.6875 4.41589 15.2716 0 9.84375 0C4.41591 0 0 4.41589 0 9.84375C0 11.991 0.679321 14.0318 1.9646 15.7453L7.21777 22.749C7.83481 23.5715 8.8165 24.0625 9.84375 24.0625C10.871 24.0625 11.8527 23.5715 12.4698 22.7488L17.7229 15.7453C19.0082 14.0318 19.6875 11.991 19.6875 9.84375ZM15.973 14.4327L10.7199 21.4362C10.5107 21.7151 10.1913 21.875 9.84375 21.875C9.49615 21.875 9.17683 21.7151 8.96765 21.4363L3.71454 14.4327C2.71556 13.1008 2.1875 11.514 2.1875 9.84375C2.1875 5.62207 5.6221 2.1875 9.84375 2.1875C14.0654 2.1875 17.5 5.62207 17.5 9.84375C17.5 11.514 16.9719 13.1008 15.973 14.4327Z" fill="#333845" fill-opacity="1.000000" fill-rule="nonzero"/>
	<path id="Vector" d="M15.3125 26.9062C15.3125 26.3022 14.8228 25.8125 14.2188 25.8125L5.46875 25.8125C4.86467 25.8125 4.375 26.3022 4.375 26.9062C4.375 27.5103 4.86467 28 5.46875 28L14.2188 28C14.8228 28 15.3125 27.5103 15.3125 26.9062Z" fill="#333845" fill-opacity="1.000000" fill-rule="nonzero"/>
</svg>
