<svg width="24.000000" height="23.910767" viewBox="0 0 24 23.9108" fill="none" xmlns="http://www.w3.org/2000/svg" xmlns:xlink="http://www.w3.org/1999/xlink">
	<desc>
			Created with Pixso.
	</desc>
	<defs>
		<clipPath id="clip49_3331">
			<rect id="pin 1" width="24.000000" height="23.910782" fill="white" fill-opacity="0"/>
		</clipPath>
	</defs>
	<rect id="pin 1" width="24.000000" height="23.910782" fill="#FFFFFF" fill-opacity="0"/>
	<g clip-path="url(#clip49_3331)">
		<path id="Vector" d="M12 23.2697C11.808 23.2697 11.6162 23.1967 11.4697 23.0508L5.44302 17.0465C1.82742 13.4443 1.82742 7.58374 5.44302 3.98157C9.05825 0.379028 14.9418 0.379028 18.5571 3.98157C22.1727 7.58374 22.1727 13.4443 18.5571 17.0465L12.5304 23.0508C12.3837 23.1967 12.1919 23.2697 12 23.2697ZM12 2.77356C10.0096 2.77356 8.0189 3.52844 6.50352 5.03821C3.47315 8.05768 3.47315 12.9704 6.50352 15.9899L12 21.4659L17.4964 15.9899C20.5268 12.9704 20.5268 8.05768 17.4964 5.03821C15.981 3.52844 13.9903 2.77356 12 2.77356Z" fill="#333845" fill-opacity="1.000000" fill-rule="nonzero"/>
		<path id="Vector" d="M12 14.1971C9.9324 14.1971 8.25 12.5209 8.25 10.4611C8.25 8.40112 9.9324 6.72498 12 6.72498C14.0676 6.72498 15.75 8.40112 15.75 10.4611C15.75 12.5209 14.0676 14.1971 12 14.1971ZM12 8.21942C10.7593 8.21942 9.75 9.22491 9.75 10.4611C9.75 11.6971 10.7593 12.7027 12 12.7027C13.2407 12.7027 14.25 11.6971 14.25 10.4611C14.25 9.22491 13.2407 8.21942 12 8.21942Z" fill="#333845" fill-opacity="1.000000" fill-rule="nonzero"/>
	</g>
</svg>
