<svg width="20.999573" height="21.000000" viewBox="0 0 20.9996 21" fill="none" xmlns="http://www.w3.org/2000/svg" xmlns:xlink="http://www.w3.org/1999/xlink">
	<desc>
			Created with Pixso.
	</desc>
	<defs/>
	<path id="Vector" d="M20.8008 19.8575L15.3789 14.5223C16.7987 12.9797 17.6711 10.9396 17.6711 8.6947C17.6704 3.89246 13.7149 0 8.83521 0C3.95547 0 0 3.89246 0 8.6947C0 13.497 3.95547 17.3894 8.83521 17.3894C10.9436 17.3894 12.8773 16.6602 14.3963 15.4478L19.8391 20.804C20.1044 21.0653 20.5349 21.0653 20.8001 20.804C21.0659 20.5428 21.0659 20.1188 20.8008 19.8575ZM8.83521 16.0517C4.70642 16.0517 1.35941 12.7579 1.35941 8.6947C1.35941 4.63153 4.70642 1.33771 8.83521 1.33771C12.964 1.33771 16.311 4.63153 16.311 8.6947C16.311 12.7579 12.964 16.0517 8.83521 16.0517Z" fill="#2A3848" fill-opacity="1.000000" fill-rule="nonzero"/>
</svg>
