<svg width="28.000000" height="28.000000" viewBox="0 0 28 28" fill="none" xmlns="http://www.w3.org/2000/svg" xmlns:xlink="http://www.w3.org/1999/xlink">
	<desc>
			Created with Pixso.
	</desc>
	<defs>
		<clipPath id="clip49_3679">
			<rect id="shopping-bag 2" width="28.000000" height="28.000000" fill="white" fill-opacity="0"/>
		</clipPath>
	</defs>
	<rect id="shopping-bag 2" width="28.000000" height="28.000000" fill="#FFFFFF" fill-opacity="0"/>
	<g clip-path="url(#clip49_3679)">
		<path id="Vector" d="M20.8251 26.25L7.17505 26.25C4.2876 26.25 1.92505 23.8875 1.92505 21L1.92505 20.825L2.45007 6.82501C2.5376 3.9375 4.90002 1.75 7.70007 1.75L20.3 1.75C23.1001 1.75 25.4625 3.9375 25.55 6.82501L26.0751 20.825C26.1626 22.225 25.6376 23.5375 24.675 24.5875C23.7125 25.6375 22.4 26.25 21 26.25C21 26.25 20.9126 26.25 20.8251 26.25ZM7.70007 3.5C5.77502 3.5 4.2876 4.98749 4.20007 6.82501L3.67505 21C3.67505 22.925 5.25 24.5 7.17505 24.5L21 24.5C21.9625 24.5 22.8375 24.0625 23.4501 23.3625C24.0625 22.6625 24.4126 21.7875 24.4126 20.825L23.8876 6.82501C23.8 4.90002 22.3125 3.5 20.3876 3.5L7.70007 3.5Z" fill="#333845" fill-opacity="1.000000" fill-rule="nonzero"/>
		<path id="Vector" d="M14 12.25C10.5875 12.25 7.875 9.53748 7.875 6.125C7.875 5.59998 8.22498 5.25 8.75 5.25C9.27502 5.25 9.625 5.59998 9.625 6.125C9.625 8.57501 11.55 10.5 14 10.5C16.45 10.5 18.375 8.57501 18.375 6.125C18.375 5.59998 18.725 5.25 19.25 5.25C19.775 5.25 20.125 5.59998 20.125 6.125C20.125 9.53748 17.4125 12.25 14 12.25Z" fill="#333845" fill-opacity="1.000000" fill-rule="nonzero"/>
	</g>
</svg>
