<svg width="25.375000" height="25.280670" viewBox="0 0 25.375 25.2807" fill="none" xmlns="http://www.w3.org/2000/svg" xmlns:xlink="http://www.w3.org/1999/xlink">
	<desc>
			Created with Pixso.
	</desc>
	<defs/>
	<path id="Vector" d="M12.6875 0C5.69122 0 0 5.6701 0 12.6403C0 19.6106 5.69122 25.2807 12.6875 25.2807C19.6838 25.2807 25.375 19.6106 25.375 12.6403C25.375 5.6701 19.6838 0 12.6875 0ZM12.6875 23.4749C6.68811 23.4749 1.8125 18.6174 1.8125 12.6403C1.8125 6.66327 6.68811 1.80576 12.6875 1.80576C18.6869 1.80576 23.5625 6.66327 23.5625 12.6403C23.5625 18.6174 18.6869 23.4749 12.6875 23.4749Z" fill="#333845" fill-opacity="1.000000" fill-rule="nonzero"/>
	<path id="Vector" d="M19.2306 10.3109L15.2703 9.74213L13.5031 6.16672C13.195 5.55273 12.18 5.55273 11.8718 6.16672L10.1047 9.74213L6.14435 10.3109C5.80896 10.3651 5.51904 10.5999 5.41937 10.9249C5.31061 11.2499 5.40125 11.6111 5.64594 11.8549L8.50964 14.6357L7.82996 18.5633C7.77563 18.8973 7.91156 19.2404 8.1925 19.4481C8.47339 19.6467 8.84497 19.6738 9.14404 19.5113L12.6875 17.6604L16.2309 19.5113C16.3578 19.5835 16.5028 19.6196 16.6478 19.6196C16.8381 19.6196 17.0284 19.5564 17.1825 19.4481C17.4634 19.2404 17.5994 18.8973 17.545 18.5633L16.8653 14.6357L19.7291 11.8549C19.9738 11.6111 20.0643 11.2499 19.9556 10.9249C19.8559 10.5999 19.5659 10.3651 19.2306 10.3109ZM15.2612 13.6696C15.0436 13.8773 14.9531 14.1753 14.9984 14.4732L15.4425 17.0645L13.1044 15.8366C12.9775 15.7734 12.8325 15.7372 12.6875 15.7372C12.5425 15.7372 12.3975 15.7734 12.2706 15.8366L9.9325 17.0645L10.3765 14.4732C10.4219 14.1753 10.3312 13.8773 10.1137 13.6696L8.22876 11.8368L10.8387 11.4576C11.1287 11.4124 11.3915 11.2319 11.5184 10.961L12.6875 8.60449L13.8566 10.961C13.9834 11.2319 14.2462 11.4124 14.5363 11.4576L17.1462 11.8368L15.2612 13.6696Z" fill="#333845" fill-opacity="1.000000" fill-rule="nonzero"/>
</svg>
