<svg width="28.000000" height="28.000000" viewBox="0 0 28 28" fill="none" xmlns="http://www.w3.org/2000/svg" xmlns:xlink="http://www.w3.org/1999/xlink">
	<desc>
			Created with Pixso.
	</desc>
	<defs>
		<clipPath id="clip49_3555">
			<rect id="stethoscope 1" width="28.000000" height="28.000000" fill="white" fill-opacity="0"/>
		</clipPath>
	</defs>
	<rect id="stethoscope 1" width="28.000000" height="28.000000" fill="#FFFFFF" fill-opacity="0"/>
	<g clip-path="url(#clip49_3555)">
		<path id="Vector" d="M17.27 1.08997L13.9998 1.08997L13.9998 3.13373L16.248 3.13373L16.248 6.98285C16.248 10.3636 13.4974 13.1143 10.1166 13.1143C6.73584 13.1143 3.98523 10.3637 3.98523 6.98291L3.98523 3.13373L6.16528 3.13373L6.16528 1.08997L2.96338 1.08997C2.39893 1.08997 1.94147 1.54742 1.94147 2.11188L1.94147 6.98291C1.94147 11.4908 5.6087 15.1581 10.1166 15.1581C14.6246 15.1581 18.2918 11.4908 18.2918 6.98291L18.2918 2.11188C18.2918 1.54742 17.8344 1.08997 17.27 1.08997Z" fill="#333845" fill-opacity="1.000000" fill-rule="nonzero"/>
		<path id="Vector" d="M21.2553 16.0097L21.2553 20.8467C21.2553 23.6641 18.9632 25.9562 16.1458 25.9562C13.3284 25.9562 11.0363 23.6641 11.0363 20.8467L11.0363 14.1703L8.99249 14.1703L8.99249 20.8467C8.99249 24.7909 12.2012 28 16.1458 28C20.09 28 23.2991 24.7909 23.2991 20.8467L23.2991 16.0097L21.2553 16.0097Z" fill="#333845" fill-opacity="1.000000" fill-rule="nonzero"/>
		<path id="Vector" d="M22.2776 9.40149C20.1923 9.40149 18.4962 11.0975 18.4962 13.1826C18.4962 15.2672 20.1923 16.9636 22.2773 16.9636C24.3622 16.9636 26.0583 15.2672 26.0586 13.1826C26.0586 11.0975 24.3622 9.40149 22.2776 9.40149ZM22.2773 14.9198C21.3191 14.9198 20.5397 14.1404 20.5397 13.1826C20.5397 12.2247 21.319 11.4454 22.2773 11.4454C23.2351 11.4454 24.0145 12.2247 24.0145 13.1826C24.0145 14.1404 23.2351 14.9198 22.2773 14.9198Z" fill="#333845" fill-opacity="1.000000" fill-rule="nonzero"/>
		<path id="Vector" d="M6.13129 0C5.56683 0 5.10938 0.457458 5.10938 1.02191L5.10938 3.20197C5.10938 3.76636 5.56683 4.22382 6.13129 4.22382C6.69568 4.22382 7.15314 3.76636 7.15314 3.20197L7.15314 1.02191C7.15314 0.457458 6.69568 0 6.13129 0Z" fill="#333845" fill-opacity="1.000000" fill-rule="nonzero"/>
		<path id="Vector" d="M14.0339 0C13.4695 0 13.012 0.457458 13.012 1.02191L13.012 3.20197C13.012 3.76636 13.4695 4.22382 14.0339 4.22382C14.5983 4.22382 15.0558 3.76636 15.0558 3.20197L15.0558 1.02191C15.0558 0.457458 14.5983 0 14.0339 0Z" fill="#333845" fill-opacity="1.000000" fill-rule="nonzero"/>
	</g>
</svg>
