<svg width="17.739380" height="17.739258" viewBox="0 0 17.7394 17.7393" fill="none" xmlns="http://www.w3.org/2000/svg" xmlns:xlink="http://www.w3.org/1999/xlink">
	<desc>
			Created with Pixso.
	</desc>
	<defs>
		<clipPath id="clip51_2542">
			<rect id="vk-social-network-logo 1" width="17.739388" height="17.739388" fill="white" fill-opacity="0"/>
		</clipPath>
	</defs>
	<rect id="vk-social-network-logo 1" width="17.739388" height="17.739388" fill="#FFFFFF" fill-opacity="0"/>
	<g clip-path="url(#clip51_2542)">
		<path id="Vector" d="M17.6454 12.9502C17.6239 12.9038 17.6039 12.8652 17.5852 12.8345C17.2775 12.2803 16.6893 11.6001 15.8211 10.7935L15.8028 10.7749L15.7936 10.7656L15.7843 10.7563L15.775 10.7563C15.381 10.3809 15.1315 10.1284 15.027 9.99902C14.8358 9.75244 14.7929 9.50342 14.8974 9.25049C14.9713 9.06006 15.2486 8.65674 15.7287 8.04102C15.9813 7.71436 16.1813 7.45312 16.329 7.25586C17.3943 5.83936 17.8562 4.93457 17.7145 4.54053L17.6595 4.44824C17.6225 4.39307 17.527 4.34229 17.3733 4.2959C17.2192 4.24951 17.0222 4.24219 16.782 4.27295L14.122 4.29102C14.0789 4.27588 14.0174 4.27734 13.9373 4.2959C13.8572 4.31445 13.8171 4.32373 13.8171 4.32373L13.7708 4.34668L13.7341 4.37451C13.7033 4.39307 13.6694 4.42529 13.6324 4.47168C13.5957 4.51758 13.5649 4.57178 13.5403 4.6333C13.2507 5.37842 12.9215 6.0708 12.5519 6.71143C12.3241 7.09326 12.1149 7.42383 11.9238 7.7041C11.7329 7.98438 11.5728 8.19043 11.4436 8.32275C11.3142 8.45508 11.1974 8.56152 11.0926 8.6416C10.9879 8.72168 10.9079 8.75537 10.8525 8.74316C10.7971 8.73096 10.7448 8.71826 10.6954 8.70605C10.6092 8.65088 10.5399 8.5752 10.4877 8.47998C10.4352 8.38428 10.3999 8.26416 10.3814 8.11963C10.363 7.97461 10.3522 7.8501 10.3491 7.74561C10.3462 7.64111 10.3475 7.49316 10.3538 7.30225C10.3602 7.11133 10.363 6.98193 10.363 6.91406C10.363 6.68018 10.3676 6.42627 10.3767 6.15234C10.3861 5.87842 10.3936 5.66113 10.3999 5.50098C10.4062 5.34131 10.4091 5.17188 10.4091 4.99316C10.4091 4.81445 10.3982 4.67432 10.3767 4.57275C10.3555 4.47119 10.3229 4.37305 10.28 4.27734C10.2368 4.18164 10.1736 4.10791 10.0907 4.05566C10.0076 4.00342 9.90424 3.96191 9.78128 3.93066C9.4549 3.85693 9.03931 3.81689 8.5343 3.81104C7.38907 3.79883 6.6532 3.87256 6.32684 4.03271C6.19754 4.1001 6.08054 4.19287 5.97592 4.30957C5.86505 4.44531 5.84958 4.51904 5.92963 4.53125C6.29913 4.58643 6.5607 4.71924 6.71466 4.92822L6.77014 5.03906C6.81329 5.11914 6.85638 5.26123 6.89951 5.46436C6.94257 5.66748 6.97037 5.89209 6.98257 6.13818C7.01331 6.58789 7.01331 6.97266 6.98257 7.29297C6.95175 7.61328 6.92264 7.8623 6.89487 8.04102C6.86707 8.21973 6.82553 8.36426 6.77014 8.4751C6.71466 8.58594 6.67776 8.65381 6.65924 8.67822C6.64078 8.70264 6.62537 8.71826 6.61316 8.72412C6.53311 8.75488 6.44989 8.77051 6.36374 8.77051C6.27747 8.77051 6.17282 8.72754 6.04971 8.64111C5.92661 8.55518 5.79886 8.43652 5.66647 8.28564C5.53406 8.13477 5.38474 7.92383 5.21841 7.65283C5.05225 7.38184 4.87979 7.06201 4.70123 6.69238L4.5535 6.42432C4.46112 6.25195 4.33496 6.00098 4.17487 5.67188C4.01468 5.34229 3.87308 5.02344 3.74997 4.71582C3.70078 4.58643 3.62686 4.48779 3.52835 4.42041L3.48212 4.39258C3.45139 4.36768 3.40207 4.3418 3.33438 4.31396C3.2666 4.28613 3.19589 4.26611 3.12195 4.25391L0.591217 4.27246C0.332611 4.27246 0.157166 4.33105 0.0647583 4.44775L0.0278015 4.50342C0.00930786 4.53418 0 4.5835 0 4.65137C0 4.71875 0.0184631 4.80225 0.0554504 4.90039C0.424896 5.76855 0.82663 6.60596 1.26071 7.4126C1.69479 8.21924 2.07199 8.86914 2.39209 9.36133C2.71225 9.854 3.0386 10.3188 3.37112 10.7559C3.70364 11.1934 3.92377 11.4736 4.03146 11.5967C4.13928 11.7197 4.22397 11.812 4.28552 11.8735L4.51648 12.0952C4.66425 12.2432 4.88126 12.4199 5.1676 12.6265C5.45398 12.8325 5.77106 13.0356 6.11893 13.2363C6.46689 13.436 6.8717 13.5991 7.33356 13.7256C7.79535 13.8516 8.24481 13.9023 8.68204 13.8779L9.7442 13.8779C9.95963 13.8594 10.1228 13.7915 10.2338 13.6748L10.2705 13.6284C10.2952 13.5918 10.3184 13.5347 10.3397 13.458C10.3613 13.3809 10.3721 13.2959 10.3721 13.2036C10.3658 12.939 10.3859 12.7007 10.432 12.4883C10.478 12.2759 10.5305 12.1157 10.5892 12.0078C10.6478 11.8999 10.714 11.8091 10.7877 11.7354C10.8615 11.6616 10.9141 11.6167 10.9449 11.6016C10.9756 11.5859 11.0001 11.5757 11.0186 11.5693C11.1664 11.52 11.3403 11.5679 11.5406 11.7124C11.7407 11.8569 11.9285 12.0356 12.104 12.248C12.2795 12.4609 12.4904 12.6992 12.7367 12.9639C12.9831 13.2285 13.1985 13.4258 13.3832 13.5552L13.5678 13.666C13.6911 13.7397 13.8512 13.8076 14.0483 13.8691C14.245 13.9307 14.4174 13.9463 14.5654 13.9155L16.9297 13.8784C17.1636 13.8784 17.3456 13.8398 17.4747 13.7627C17.604 13.686 17.6808 13.6011 17.7056 13.5088C17.7303 13.4165 17.7317 13.312 17.7103 13.1948C17.6884 13.0781 17.6668 12.9961 17.6454 12.9502Z" fill="#EEEEEE" fill-opacity="1.000000" fill-rule="nonzero"/>
	</g>
</svg>
