<svg width="16.261108" height="16.261230" viewBox="0 0 16.2611 16.2612" fill="none" xmlns="http://www.w3.org/2000/svg" xmlns:xlink="http://www.w3.org/1999/xlink">
	<desc>
			Created with Pixso.
	</desc>
	<defs>
		<clipPath id="clip51_2547">
			<rect id="whatsapp (1) 2" width="16.261105" height="16.261105" fill="white" fill-opacity="0"/>
		</clipPath>
	</defs>
	<rect id="whatsapp (1) 2" width="16.261105" height="16.261105" fill="#FFFFFF" fill-opacity="0"/>
	<g clip-path="url(#clip51_2547)">
		<path id="Vector" d="M8.13258 0L8.12852 0C3.64554 0 0 3.64648 0 8.13037C0 9.90918 0.573196 11.5576 1.54785 12.896L0.534576 15.9165L3.65976 14.9175C4.9454 15.769 6.47903 16.2612 8.13258 16.2612C12.6156 16.2612 16.2611 12.6138 16.2611 8.13037C16.2611 3.64746 12.6156 0 8.13258 0Z" fill="#EEEEEE" fill-opacity="1.000000" fill-rule="nonzero"/>
		<path id="Vector" d="M12.8636 11.4814C12.6674 12.0352 11.8889 12.4946 11.268 12.6289C10.8431 12.7192 10.2882 12.7915 8.42024 12.0171C6.03087 11.0273 4.49217 8.59912 4.37224 8.44141C4.2574 8.28418 3.40674 7.15576 3.40674 5.98926C3.40674 4.82227 3.99925 4.25439 4.23808 4.01025C4.43423 3.81006 4.75844 3.71875 5.06944 3.71875C5.17006 3.71875 5.2605 3.72363 5.34181 3.72803C5.58064 3.73828 5.70058 3.75244 5.85809 4.12939C6.05424 4.60205 6.53192 5.76855 6.58884 5.88867C6.64676 6.0083 6.7047 6.1709 6.62338 6.32861C6.54716 6.49121 6.48009 6.56348 6.36017 6.70166C6.24023 6.83984 6.1264 6.9458 6.00648 7.09375C5.89671 7.22314 5.77274 7.36133 5.91095 7.6001C6.04916 7.83398 6.52684 8.61328 7.23013 9.23926C8.13771 10.0474 8.87352 10.3057 9.13675 10.415C9.3329 10.4966 9.56665 10.4771 9.70995 10.3247C9.89188 10.1289 10.1165 9.80322 10.3452 9.4834C10.5078 9.25342 10.7131 9.2251 10.9285 9.30664C11.148 9.38281 12.3097 9.95703 12.5485 10.0757C12.7874 10.1958 12.9449 10.2524 13.0028 10.3535C13.0597 10.4541 13.0597 10.9263 12.8636 11.4814Z" fill="#333C46" fill-opacity="1.000000" fill-rule="nonzero"/>
	</g>
</svg>
